<mxfile host="app.diagrams.net" modified="2023-09-05T12:14:33.765Z" agent="Mozilla/5.0 (Windows NT 10.0; Win64; x64) AppleWebKit/537.36 (KHTML, like Gecko) Chrome/112.0.0.0 YaBrowser/23.5.2.625 Yowser/2.5 Safari/537.36" etag="rZwJEsSzJSBVi4676UVe" version="21.7.2" type="device">
  <diagram name="Страница — 1" id="SKCMALDtpzGlToM-7zmt">
    <mxGraphModel dx="1245" dy="1405" grid="1" gridSize="10" guides="1" tooltips="1" connect="1" arrows="1" fold="1" page="1" pageScale="1" pageWidth="827" pageHeight="1169" math="0" shadow="0">
      <root>
        <mxCell id="0" />
        <mxCell id="1" parent="0" />
        <mxCell id="GQdHuWOkYM_ToP7brwyJ-29" style="edgeStyle=orthogonalEdgeStyle;rounded=0;orthogonalLoop=1;jettySize=auto;html=1;" edge="1" parent="1" source="GQdHuWOkYM_ToP7brwyJ-9" target="GQdHuWOkYM_ToP7brwyJ-28">
          <mxGeometry relative="1" as="geometry" />
        </mxCell>
        <mxCell id="GQdHuWOkYM_ToP7brwyJ-33" style="edgeStyle=orthogonalEdgeStyle;rounded=0;orthogonalLoop=1;jettySize=auto;html=1;entryX=1;entryY=0.5;entryDx=0;entryDy=0;" edge="1" parent="1" source="GQdHuWOkYM_ToP7brwyJ-9" target="GQdHuWOkYM_ToP7brwyJ-15">
          <mxGeometry relative="1" as="geometry" />
        </mxCell>
        <mxCell id="GQdHuWOkYM_ToP7brwyJ-34" style="edgeStyle=orthogonalEdgeStyle;rounded=0;orthogonalLoop=1;jettySize=auto;html=1;entryX=1;entryY=0.5;entryDx=0;entryDy=0;" edge="1" parent="1" source="GQdHuWOkYM_ToP7brwyJ-9" target="GQdHuWOkYM_ToP7brwyJ-16">
          <mxGeometry relative="1" as="geometry" />
        </mxCell>
        <mxCell id="GQdHuWOkYM_ToP7brwyJ-43" style="edgeStyle=orthogonalEdgeStyle;rounded=0;orthogonalLoop=1;jettySize=auto;html=1;" edge="1" parent="1" source="GQdHuWOkYM_ToP7brwyJ-9" target="GQdHuWOkYM_ToP7brwyJ-42">
          <mxGeometry relative="1" as="geometry" />
        </mxCell>
        <mxCell id="GQdHuWOkYM_ToP7brwyJ-48" style="edgeStyle=orthogonalEdgeStyle;rounded=0;orthogonalLoop=1;jettySize=auto;html=1;entryX=0.5;entryY=0;entryDx=0;entryDy=0;entryPerimeter=0;" edge="1" parent="1" source="GQdHuWOkYM_ToP7brwyJ-9" target="GQdHuWOkYM_ToP7brwyJ-47">
          <mxGeometry relative="1" as="geometry" />
        </mxCell>
        <mxCell id="GQdHuWOkYM_ToP7brwyJ-9" value="User" style="shape=umlActor;verticalLabelPosition=bottom;verticalAlign=top;html=1;outlineConnect=0;" vertex="1" parent="1">
          <mxGeometry x="480" y="110" width="30" height="60" as="geometry" />
        </mxCell>
        <mxCell id="GQdHuWOkYM_ToP7brwyJ-15" value="Sign in" style="ellipse;whiteSpace=wrap;html=1;" vertex="1" parent="1">
          <mxGeometry x="230" y="150" width="120" height="80" as="geometry" />
        </mxCell>
        <mxCell id="GQdHuWOkYM_ToP7brwyJ-16" value="Sign up" style="ellipse;whiteSpace=wrap;html=1;" vertex="1" parent="1">
          <mxGeometry x="230" y="240" width="120" height="80" as="geometry" />
        </mxCell>
        <mxCell id="GQdHuWOkYM_ToP7brwyJ-20" value="View my orders" style="ellipse;whiteSpace=wrap;html=1;" vertex="1" parent="1">
          <mxGeometry x="760" y="80" width="120" height="80" as="geometry" />
        </mxCell>
        <mxCell id="GQdHuWOkYM_ToP7brwyJ-28" value="Launching app" style="ellipse;whiteSpace=wrap;html=1;" vertex="1" parent="1">
          <mxGeometry x="570" y="50" width="120" height="80" as="geometry" />
        </mxCell>
        <mxCell id="GQdHuWOkYM_ToP7brwyJ-35" value="Edit profile" style="ellipse;whiteSpace=wrap;html=1;" vertex="1" parent="1">
          <mxGeometry x="294" y="325" width="120" height="80" as="geometry" />
        </mxCell>
        <mxCell id="GQdHuWOkYM_ToP7brwyJ-37" value="Confirmation phone number" style="ellipse;whiteSpace=wrap;html=1;" vertex="1" parent="1">
          <mxGeometry x="60" y="310" width="120" height="80" as="geometry" />
        </mxCell>
        <mxCell id="GQdHuWOkYM_ToP7brwyJ-42" value="View product catalog&amp;nbsp;" style="ellipse;whiteSpace=wrap;html=1;" vertex="1" parent="1">
          <mxGeometry x="570" y="140" width="120" height="80" as="geometry" />
        </mxCell>
        <mxCell id="GQdHuWOkYM_ToP7brwyJ-62" style="edgeStyle=orthogonalEdgeStyle;rounded=0;orthogonalLoop=1;jettySize=auto;html=1;entryX=1;entryY=0.5;entryDx=0;entryDy=0;" edge="1" parent="1" source="GQdHuWOkYM_ToP7brwyJ-47" target="GQdHuWOkYM_ToP7brwyJ-35">
          <mxGeometry relative="1" as="geometry" />
        </mxCell>
        <mxCell id="GQdHuWOkYM_ToP7brwyJ-77" style="edgeStyle=orthogonalEdgeStyle;rounded=0;orthogonalLoop=1;jettySize=auto;html=1;entryX=0;entryY=0.5;entryDx=0;entryDy=0;" edge="1" parent="1" source="GQdHuWOkYM_ToP7brwyJ-47" target="GQdHuWOkYM_ToP7brwyJ-76">
          <mxGeometry relative="1" as="geometry" />
        </mxCell>
        <mxCell id="GQdHuWOkYM_ToP7brwyJ-80" style="edgeStyle=orthogonalEdgeStyle;rounded=0;orthogonalLoop=1;jettySize=auto;html=1;entryX=0;entryY=0.5;entryDx=0;entryDy=0;" edge="1" parent="1" source="GQdHuWOkYM_ToP7brwyJ-47" target="GQdHuWOkYM_ToP7brwyJ-70">
          <mxGeometry relative="1" as="geometry" />
        </mxCell>
        <mxCell id="GQdHuWOkYM_ToP7brwyJ-82" style="edgeStyle=orthogonalEdgeStyle;rounded=0;orthogonalLoop=1;jettySize=auto;html=1;entryX=0.5;entryY=0;entryDx=0;entryDy=0;entryPerimeter=0;" edge="1" parent="1" source="GQdHuWOkYM_ToP7brwyJ-47" target="GQdHuWOkYM_ToP7brwyJ-81">
          <mxGeometry relative="1" as="geometry" />
        </mxCell>
        <mxCell id="GQdHuWOkYM_ToP7brwyJ-47" value="Authenticated" style="shape=umlActor;verticalLabelPosition=bottom;verticalAlign=top;html=1;" vertex="1" parent="1">
          <mxGeometry x="480" y="335" width="30" height="60" as="geometry" />
        </mxCell>
        <mxCell id="GQdHuWOkYM_ToP7brwyJ-49" value="&amp;lt;&amp;lt;include&amp;gt;&amp;gt;" style="html=1;verticalAlign=bottom;endArrow=open;dashed=1;endSize=8;curved=0;rounded=0;exitX=0;exitY=0.5;exitDx=0;exitDy=0;entryX=1;entryY=0.5;entryDx=0;entryDy=0;" edge="1" parent="1" source="GQdHuWOkYM_ToP7brwyJ-16" target="GQdHuWOkYM_ToP7brwyJ-37">
          <mxGeometry relative="1" as="geometry">
            <mxPoint x="150" y="270" as="sourcePoint" />
            <mxPoint x="110" y="270" as="targetPoint" />
          </mxGeometry>
        </mxCell>
        <mxCell id="GQdHuWOkYM_ToP7brwyJ-51" value="&amp;lt;&amp;lt;include&amp;gt;&amp;gt;" style="html=1;verticalAlign=bottom;endArrow=open;dashed=1;endSize=8;curved=0;rounded=0;exitX=0;exitY=0.5;exitDx=0;exitDy=0;entryX=1;entryY=0;entryDx=0;entryDy=0;" edge="1" parent="1" target="GQdHuWOkYM_ToP7brwyJ-37">
          <mxGeometry relative="1" as="geometry">
            <mxPoint x="230" y="190" as="sourcePoint" />
            <mxPoint x="110" y="180" as="targetPoint" />
          </mxGeometry>
        </mxCell>
        <mxCell id="GQdHuWOkYM_ToP7brwyJ-53" value="Make order" style="ellipse;whiteSpace=wrap;html=1;" vertex="1" parent="1">
          <mxGeometry x="760" y="170" width="140" height="70" as="geometry" />
        </mxCell>
        <mxCell id="GQdHuWOkYM_ToP7brwyJ-56" value="Add product" style="ellipse;whiteSpace=wrap;html=1;" vertex="1" parent="1">
          <mxGeometry x="970" y="190" width="140" height="70" as="geometry" />
        </mxCell>
        <mxCell id="GQdHuWOkYM_ToP7brwyJ-57" value="Remove product" style="ellipse;whiteSpace=wrap;html=1;" vertex="1" parent="1">
          <mxGeometry x="970" y="270" width="140" height="70" as="geometry" />
        </mxCell>
        <mxCell id="GQdHuWOkYM_ToP7brwyJ-58" value="&amp;lt;&amp;lt;include&amp;gt;&amp;gt;" style="html=1;verticalAlign=bottom;endArrow=open;dashed=1;endSize=8;curved=0;rounded=0;exitX=1;exitY=0.5;exitDx=0;exitDy=0;entryX=0;entryY=0.5;entryDx=0;entryDy=0;" edge="1" parent="1" source="GQdHuWOkYM_ToP7brwyJ-53" target="GQdHuWOkYM_ToP7brwyJ-56">
          <mxGeometry relative="1" as="geometry">
            <mxPoint x="980" y="265" as="sourcePoint" />
            <mxPoint x="307" y="255" as="targetPoint" />
          </mxGeometry>
        </mxCell>
        <mxCell id="GQdHuWOkYM_ToP7brwyJ-59" value="&amp;lt;&amp;lt;include&amp;gt;&amp;gt;" style="html=1;verticalAlign=bottom;endArrow=open;dashed=1;endSize=8;curved=0;rounded=0;exitX=1;exitY=0.5;exitDx=0;exitDy=0;entryX=0;entryY=0.5;entryDx=0;entryDy=0;" edge="1" parent="1" source="GQdHuWOkYM_ToP7brwyJ-53" target="GQdHuWOkYM_ToP7brwyJ-57">
          <mxGeometry relative="1" as="geometry">
            <mxPoint x="980" y="265" as="sourcePoint" />
            <mxPoint x="920" y="245" as="targetPoint" />
          </mxGeometry>
        </mxCell>
        <mxCell id="GQdHuWOkYM_ToP7brwyJ-63" value="&amp;lt;&amp;lt;include&amp;gt;&amp;gt;" style="html=1;verticalAlign=bottom;endArrow=open;dashed=1;endSize=8;curved=0;rounded=0;exitX=0;exitY=0.5;exitDx=0;exitDy=0;entryX=1;entryY=1;entryDx=0;entryDy=0;" edge="1" parent="1" target="GQdHuWOkYM_ToP7brwyJ-37">
          <mxGeometry relative="1" as="geometry">
            <mxPoint x="293.5" y="365" as="sourcePoint" />
            <mxPoint x="240.5" y="450" as="targetPoint" />
          </mxGeometry>
        </mxCell>
        <mxCell id="GQdHuWOkYM_ToP7brwyJ-64" value="Filling out profile" style="ellipse;whiteSpace=wrap;html=1;" vertex="1" parent="1">
          <mxGeometry x="283.5" y="450" width="140" height="70" as="geometry" />
        </mxCell>
        <mxCell id="GQdHuWOkYM_ToP7brwyJ-66" value="&amp;lt;&amp;lt;include&amp;gt;&amp;gt;" style="html=1;verticalAlign=bottom;endArrow=open;dashed=1;endSize=8;curved=0;rounded=0;exitX=0.5;exitY=1;exitDx=0;exitDy=0;entryX=0.5;entryY=0;entryDx=0;entryDy=0;" edge="1" parent="1" source="GQdHuWOkYM_ToP7brwyJ-35" target="GQdHuWOkYM_ToP7brwyJ-64">
          <mxGeometry relative="1" as="geometry">
            <mxPoint x="303.5" y="375" as="sourcePoint" />
            <mxPoint x="172" y="388" as="targetPoint" />
          </mxGeometry>
        </mxCell>
        <mxCell id="GQdHuWOkYM_ToP7brwyJ-68" value="Choose payment type" style="ellipse;whiteSpace=wrap;html=1;" vertex="1" parent="1">
          <mxGeometry x="970" y="110" width="140" height="70" as="geometry" />
        </mxCell>
        <mxCell id="GQdHuWOkYM_ToP7brwyJ-69" value="&amp;lt;&amp;lt;include&amp;gt;&amp;gt;" style="html=1;verticalAlign=bottom;endArrow=open;dashed=1;endSize=8;curved=0;rounded=0;entryX=0;entryY=0.5;entryDx=0;entryDy=0;exitX=1;exitY=0.5;exitDx=0;exitDy=0;" edge="1" parent="1" source="GQdHuWOkYM_ToP7brwyJ-53" target="GQdHuWOkYM_ToP7brwyJ-68">
          <mxGeometry relative="1" as="geometry">
            <mxPoint x="910" y="270" as="sourcePoint" />
            <mxPoint x="980" y="265" as="targetPoint" />
          </mxGeometry>
        </mxCell>
        <mxCell id="GQdHuWOkYM_ToP7brwyJ-70" value="Working with my orders" style="ellipse;whiteSpace=wrap;html=1;" vertex="1" parent="1">
          <mxGeometry x="580" y="235" width="140" height="70" as="geometry" />
        </mxCell>
        <mxCell id="GQdHuWOkYM_ToP7brwyJ-71" value="&amp;lt;&amp;lt;include&amp;gt;&amp;gt;" style="html=1;verticalAlign=bottom;endArrow=open;dashed=1;endSize=8;curved=0;rounded=0;exitX=1;exitY=0.5;exitDx=0;exitDy=0;entryX=0;entryY=0.5;entryDx=0;entryDy=0;" edge="1" parent="1" source="GQdHuWOkYM_ToP7brwyJ-70" target="GQdHuWOkYM_ToP7brwyJ-53">
          <mxGeometry relative="1" as="geometry">
            <mxPoint x="880" y="275" as="sourcePoint" />
            <mxPoint x="760" y="270" as="targetPoint" />
          </mxGeometry>
        </mxCell>
        <mxCell id="GQdHuWOkYM_ToP7brwyJ-74" value="Pick up order" style="ellipse;whiteSpace=wrap;html=1;" vertex="1" parent="1">
          <mxGeometry x="760" y="250" width="140" height="75" as="geometry" />
        </mxCell>
        <mxCell id="GQdHuWOkYM_ToP7brwyJ-75" value="&amp;lt;&amp;lt;include&amp;gt;&amp;gt;" style="html=1;verticalAlign=bottom;endArrow=open;dashed=1;endSize=8;curved=0;rounded=0;exitX=1;exitY=0.5;exitDx=0;exitDy=0;entryX=0;entryY=0.5;entryDx=0;entryDy=0;" edge="1" parent="1" source="GQdHuWOkYM_ToP7brwyJ-70" target="GQdHuWOkYM_ToP7brwyJ-74">
          <mxGeometry relative="1" as="geometry">
            <mxPoint x="920" y="275" as="sourcePoint" />
            <mxPoint x="980" y="375" as="targetPoint" />
          </mxGeometry>
        </mxCell>
        <mxCell id="GQdHuWOkYM_ToP7brwyJ-76" value="Сommunication with technical support" style="ellipse;whiteSpace=wrap;html=1;" vertex="1" parent="1">
          <mxGeometry x="580" y="380" width="140" height="70" as="geometry" />
        </mxCell>
        <mxCell id="GQdHuWOkYM_ToP7brwyJ-89" style="edgeStyle=orthogonalEdgeStyle;rounded=0;orthogonalLoop=1;jettySize=auto;html=1;" edge="1" parent="1" source="GQdHuWOkYM_ToP7brwyJ-81" target="GQdHuWOkYM_ToP7brwyJ-88">
          <mxGeometry relative="1" as="geometry" />
        </mxCell>
        <mxCell id="GQdHuWOkYM_ToP7brwyJ-94" style="edgeStyle=orthogonalEdgeStyle;rounded=0;orthogonalLoop=1;jettySize=auto;html=1;" edge="1" parent="1" source="GQdHuWOkYM_ToP7brwyJ-81" target="GQdHuWOkYM_ToP7brwyJ-83">
          <mxGeometry relative="1" as="geometry" />
        </mxCell>
        <mxCell id="GQdHuWOkYM_ToP7brwyJ-96" style="edgeStyle=orthogonalEdgeStyle;rounded=0;orthogonalLoop=1;jettySize=auto;html=1;entryX=0.5;entryY=0;entryDx=0;entryDy=0;entryPerimeter=0;" edge="1" parent="1" source="GQdHuWOkYM_ToP7brwyJ-81" target="GQdHuWOkYM_ToP7brwyJ-95">
          <mxGeometry relative="1" as="geometry" />
        </mxCell>
        <mxCell id="GQdHuWOkYM_ToP7brwyJ-121" style="edgeStyle=orthogonalEdgeStyle;rounded=0;orthogonalLoop=1;jettySize=auto;html=1;" edge="1" parent="1" source="GQdHuWOkYM_ToP7brwyJ-81" target="GQdHuWOkYM_ToP7brwyJ-110">
          <mxGeometry relative="1" as="geometry" />
        </mxCell>
        <mxCell id="GQdHuWOkYM_ToP7brwyJ-81" value="Manager" style="shape=umlActor;verticalLabelPosition=bottom;verticalAlign=top;html=1;" vertex="1" parent="1">
          <mxGeometry x="480" y="554" width="30" height="60" as="geometry" />
        </mxCell>
        <mxCell id="GQdHuWOkYM_ToP7brwyJ-83" value="Send order" style="ellipse;whiteSpace=wrap;html=1;" vertex="1" parent="1">
          <mxGeometry x="520" y="470" width="140" height="70" as="geometry" />
        </mxCell>
        <mxCell id="GQdHuWOkYM_ToP7brwyJ-84" value="Send message" style="ellipse;whiteSpace=wrap;html=1;" vertex="1" parent="1">
          <mxGeometry x="750" y="335" width="140" height="70" as="geometry" />
        </mxCell>
        <mxCell id="GQdHuWOkYM_ToP7brwyJ-85" value="&amp;lt;&amp;lt;include&amp;gt;&amp;gt;" style="html=1;verticalAlign=bottom;endArrow=open;dashed=1;endSize=8;curved=0;rounded=0;exitX=1;exitY=0.5;exitDx=0;exitDy=0;entryX=0;entryY=0.5;entryDx=0;entryDy=0;" edge="1" parent="1" source="GQdHuWOkYM_ToP7brwyJ-76" target="GQdHuWOkYM_ToP7brwyJ-84">
          <mxGeometry relative="1" as="geometry">
            <mxPoint x="730" y="280" as="sourcePoint" />
            <mxPoint x="770" y="215" as="targetPoint" />
          </mxGeometry>
        </mxCell>
        <mxCell id="GQdHuWOkYM_ToP7brwyJ-86" value="Delete message" style="ellipse;whiteSpace=wrap;html=1;" vertex="1" parent="1">
          <mxGeometry x="750" y="420" width="140" height="70" as="geometry" />
        </mxCell>
        <mxCell id="GQdHuWOkYM_ToP7brwyJ-87" value="&amp;lt;&amp;lt;include&amp;gt;&amp;gt;" style="html=1;verticalAlign=bottom;endArrow=open;dashed=1;endSize=8;curved=0;rounded=0;exitX=1;exitY=0.5;exitDx=0;exitDy=0;entryX=0;entryY=0.5;entryDx=0;entryDy=0;" edge="1" parent="1" source="GQdHuWOkYM_ToP7brwyJ-76" target="GQdHuWOkYM_ToP7brwyJ-86">
          <mxGeometry relative="1" as="geometry">
            <mxPoint x="730" y="475" as="sourcePoint" />
            <mxPoint x="770" y="425" as="targetPoint" />
          </mxGeometry>
        </mxCell>
        <mxCell id="GQdHuWOkYM_ToP7brwyJ-88" value="Сommunication with&amp;nbsp;buyer" style="ellipse;whiteSpace=wrap;html=1;" vertex="1" parent="1">
          <mxGeometry x="274" y="549" width="140" height="70" as="geometry" />
        </mxCell>
        <mxCell id="GQdHuWOkYM_ToP7brwyJ-90" value="Send message" style="ellipse;whiteSpace=wrap;html=1;" vertex="1" parent="1">
          <mxGeometry x="100" y="440" width="140" height="70" as="geometry" />
        </mxCell>
        <mxCell id="GQdHuWOkYM_ToP7brwyJ-91" value="&amp;lt;&amp;lt;include&amp;gt;&amp;gt;" style="html=1;verticalAlign=bottom;endArrow=open;dashed=1;endSize=8;curved=0;rounded=0;exitX=0;exitY=0.5;exitDx=0;exitDy=0;entryX=1;entryY=0.5;entryDx=0;entryDy=0;" edge="1" parent="1" target="GQdHuWOkYM_ToP7brwyJ-90" source="GQdHuWOkYM_ToP7brwyJ-88">
          <mxGeometry relative="1" as="geometry">
            <mxPoint x="70" y="575" as="sourcePoint" />
            <mxPoint x="120" y="325" as="targetPoint" />
          </mxGeometry>
        </mxCell>
        <mxCell id="GQdHuWOkYM_ToP7brwyJ-92" value="Delete message" style="ellipse;whiteSpace=wrap;html=1;" vertex="1" parent="1">
          <mxGeometry x="90" y="600" width="140" height="70" as="geometry" />
        </mxCell>
        <mxCell id="GQdHuWOkYM_ToP7brwyJ-93" value="&amp;lt;&amp;lt;include&amp;gt;&amp;gt;" style="html=1;verticalAlign=bottom;endArrow=open;dashed=1;endSize=8;curved=0;rounded=0;exitX=0;exitY=0.5;exitDx=0;exitDy=0;entryX=1;entryY=0.5;entryDx=0;entryDy=0;" edge="1" parent="1" target="GQdHuWOkYM_ToP7brwyJ-92" source="GQdHuWOkYM_ToP7brwyJ-88">
          <mxGeometry relative="1" as="geometry">
            <mxPoint x="70" y="575" as="sourcePoint" />
            <mxPoint x="120" y="535" as="targetPoint" />
          </mxGeometry>
        </mxCell>
        <mxCell id="GQdHuWOkYM_ToP7brwyJ-101" style="edgeStyle=orthogonalEdgeStyle;rounded=0;orthogonalLoop=1;jettySize=auto;html=1;entryX=1;entryY=0.5;entryDx=0;entryDy=0;" edge="1" parent="1" source="GQdHuWOkYM_ToP7brwyJ-95" target="GQdHuWOkYM_ToP7brwyJ-102">
          <mxGeometry relative="1" as="geometry" />
        </mxCell>
        <mxCell id="GQdHuWOkYM_ToP7brwyJ-123" style="edgeStyle=orthogonalEdgeStyle;rounded=0;orthogonalLoop=1;jettySize=auto;html=1;entryX=0;entryY=0.5;entryDx=0;entryDy=0;" edge="1" parent="1" source="GQdHuWOkYM_ToP7brwyJ-95" target="GQdHuWOkYM_ToP7brwyJ-97">
          <mxGeometry relative="1" as="geometry" />
        </mxCell>
        <mxCell id="GQdHuWOkYM_ToP7brwyJ-95" value="Admin" style="shape=umlActor;verticalLabelPosition=bottom;verticalAlign=top;html=1;" vertex="1" parent="1">
          <mxGeometry x="480" y="685" width="30" height="60" as="geometry" />
        </mxCell>
        <mxCell id="GQdHuWOkYM_ToP7brwyJ-97" value="View all orders" style="ellipse;whiteSpace=wrap;html=1;" vertex="1" parent="1">
          <mxGeometry x="570" y="680" width="140" height="70" as="geometry" />
        </mxCell>
        <mxCell id="GQdHuWOkYM_ToP7brwyJ-102" value="Work with employees" style="ellipse;whiteSpace=wrap;html=1;" vertex="1" parent="1">
          <mxGeometry x="283.5" y="680" width="140" height="70" as="geometry" />
        </mxCell>
        <mxCell id="GQdHuWOkYM_ToP7brwyJ-103" value="Add employee" style="ellipse;whiteSpace=wrap;html=1;" vertex="1" parent="1">
          <mxGeometry x="90" y="680" width="140" height="70" as="geometry" />
        </mxCell>
        <mxCell id="GQdHuWOkYM_ToP7brwyJ-104" value="Dismiss employee" style="ellipse;whiteSpace=wrap;html=1;" vertex="1" parent="1">
          <mxGeometry x="284" y="820" width="140" height="70" as="geometry" />
        </mxCell>
        <mxCell id="GQdHuWOkYM_ToP7brwyJ-105" value="&amp;lt;&amp;lt;include&amp;gt;&amp;gt;" style="html=1;verticalAlign=bottom;endArrow=open;dashed=1;endSize=8;curved=0;rounded=0;exitX=0;exitY=0.5;exitDx=0;exitDy=0;entryX=1;entryY=0.5;entryDx=0;entryDy=0;" edge="1" parent="1" source="GQdHuWOkYM_ToP7brwyJ-102" target="GQdHuWOkYM_ToP7brwyJ-103">
          <mxGeometry relative="1" as="geometry">
            <mxPoint x="310.0000000000016" y="685" as="sourcePoint" />
            <mxPoint x="240" y="635" as="targetPoint" />
          </mxGeometry>
        </mxCell>
        <mxCell id="GQdHuWOkYM_ToP7brwyJ-106" value="&amp;lt;&amp;lt;include&amp;gt;&amp;gt;" style="html=1;verticalAlign=bottom;endArrow=open;dashed=1;endSize=8;curved=0;rounded=0;exitX=0.5;exitY=1;exitDx=0;exitDy=0;entryX=0.5;entryY=0;entryDx=0;entryDy=0;" edge="1" parent="1" source="GQdHuWOkYM_ToP7brwyJ-102" target="GQdHuWOkYM_ToP7brwyJ-104">
          <mxGeometry relative="1" as="geometry">
            <mxPoint x="294" y="604" as="sourcePoint" />
            <mxPoint x="250" y="645" as="targetPoint" />
          </mxGeometry>
        </mxCell>
        <mxCell id="GQdHuWOkYM_ToP7brwyJ-107" value="View all employees" style="ellipse;whiteSpace=wrap;html=1;" vertex="1" parent="1">
          <mxGeometry x="143.5" y="780" width="140" height="70" as="geometry" />
        </mxCell>
        <mxCell id="GQdHuWOkYM_ToP7brwyJ-108" value="&amp;lt;&amp;lt;include&amp;gt;&amp;gt;" style="html=1;verticalAlign=bottom;endArrow=open;dashed=1;endSize=8;curved=0;rounded=0;exitX=0;exitY=1;exitDx=0;exitDy=0;entryX=0.5;entryY=0;entryDx=0;entryDy=0;" edge="1" parent="1" source="GQdHuWOkYM_ToP7brwyJ-102" target="GQdHuWOkYM_ToP7brwyJ-107">
          <mxGeometry relative="1" as="geometry">
            <mxPoint x="304" y="614" as="sourcePoint" />
            <mxPoint x="260" y="655" as="targetPoint" />
          </mxGeometry>
        </mxCell>
        <mxCell id="GQdHuWOkYM_ToP7brwyJ-109" value="Delete order" style="ellipse;whiteSpace=wrap;html=1;" vertex="1" parent="1">
          <mxGeometry x="830" y="590" width="140" height="70" as="geometry" />
        </mxCell>
        <mxCell id="GQdHuWOkYM_ToP7brwyJ-110" value="Work with orders" style="ellipse;whiteSpace=wrap;html=1;" vertex="1" parent="1">
          <mxGeometry x="660" y="549" width="140" height="70" as="geometry" />
        </mxCell>
        <mxCell id="GQdHuWOkYM_ToP7brwyJ-112" value="&amp;lt;&amp;lt;include&amp;gt;&amp;gt;" style="html=1;verticalAlign=bottom;endArrow=open;dashed=1;endSize=8;curved=0;rounded=0;exitX=1;exitY=0.5;exitDx=0;exitDy=0;entryX=0;entryY=0.5;entryDx=0;entryDy=0;" edge="1" parent="1" source="GQdHuWOkYM_ToP7brwyJ-110" target="GQdHuWOkYM_ToP7brwyJ-109">
          <mxGeometry relative="1" as="geometry">
            <mxPoint x="314" y="624" as="sourcePoint" />
            <mxPoint x="270" y="665" as="targetPoint" />
          </mxGeometry>
        </mxCell>
        <mxCell id="GQdHuWOkYM_ToP7brwyJ-114" value="&amp;lt;&amp;lt;include&amp;gt;&amp;gt;" style="html=1;verticalAlign=bottom;endArrow=open;dashed=1;endSize=8;curved=0;rounded=0;exitX=1;exitY=0.5;exitDx=0;exitDy=0;entryX=0;entryY=0.5;entryDx=0;entryDy=0;" edge="1" parent="1" source="GQdHuWOkYM_ToP7brwyJ-70" target="GQdHuWOkYM_ToP7brwyJ-20">
          <mxGeometry relative="1" as="geometry">
            <mxPoint x="730" y="280" as="sourcePoint" />
            <mxPoint x="770" y="215" as="targetPoint" />
          </mxGeometry>
        </mxCell>
        <mxCell id="GQdHuWOkYM_ToP7brwyJ-115" value="Edit order" style="ellipse;whiteSpace=wrap;html=1;" vertex="1" parent="1">
          <mxGeometry x="840" y="500" width="140" height="70" as="geometry" />
        </mxCell>
        <mxCell id="GQdHuWOkYM_ToP7brwyJ-117" value="Edit message" style="ellipse;whiteSpace=wrap;html=1;" vertex="1" parent="1">
          <mxGeometry x="90" y="520" width="140" height="70" as="geometry" />
        </mxCell>
        <mxCell id="GQdHuWOkYM_ToP7brwyJ-119" value="&amp;lt;&amp;lt;include&amp;gt;&amp;gt;" style="html=1;verticalAlign=bottom;endArrow=open;dashed=1;endSize=8;curved=0;rounded=0;exitX=0;exitY=0.5;exitDx=0;exitDy=0;entryX=1;entryY=0.5;entryDx=0;entryDy=0;" edge="1" parent="1" source="GQdHuWOkYM_ToP7brwyJ-88" target="GQdHuWOkYM_ToP7brwyJ-117">
          <mxGeometry relative="1" as="geometry">
            <mxPoint x="284" y="594" as="sourcePoint" />
            <mxPoint x="250" y="495" as="targetPoint" />
          </mxGeometry>
        </mxCell>
        <mxCell id="GQdHuWOkYM_ToP7brwyJ-122" value="&amp;lt;&amp;lt;include&amp;gt;&amp;gt;" style="html=1;verticalAlign=bottom;endArrow=open;dashed=1;endSize=8;curved=0;rounded=0;exitX=1;exitY=0.5;exitDx=0;exitDy=0;entryX=0;entryY=0.5;entryDx=0;entryDy=0;" edge="1" parent="1" source="GQdHuWOkYM_ToP7brwyJ-110" target="GQdHuWOkYM_ToP7brwyJ-115">
          <mxGeometry relative="1" as="geometry">
            <mxPoint x="810" y="594" as="sourcePoint" />
            <mxPoint x="830" y="715" as="targetPoint" />
          </mxGeometry>
        </mxCell>
        <mxCell id="GQdHuWOkYM_ToP7brwyJ-124" value="Edit message" style="ellipse;whiteSpace=wrap;html=1;" vertex="1" parent="1">
          <mxGeometry x="900" y="370" width="140" height="70" as="geometry" />
        </mxCell>
        <mxCell id="GQdHuWOkYM_ToP7brwyJ-125" value="&amp;lt;&amp;lt;include&amp;gt;&amp;gt;" style="html=1;verticalAlign=bottom;endArrow=open;dashed=1;endSize=8;curved=0;rounded=0;exitX=1;exitY=0.5;exitDx=0;exitDy=0;entryX=0;entryY=0.5;entryDx=0;entryDy=0;" edge="1" parent="1" target="GQdHuWOkYM_ToP7brwyJ-124">
          <mxGeometry relative="1" as="geometry">
            <mxPoint x="730" y="425" as="sourcePoint" />
            <mxPoint x="1060" y="355" as="targetPoint" />
          </mxGeometry>
        </mxCell>
      </root>
    </mxGraphModel>
  </diagram>
</mxfile>
